<svg xmlns="http://www.w3.org/2000/svg" version="1.1" xmlns:xlink="http://www.w3.org/1999/xlink" width="1500" height="129" viewBox="0 0 1500 129"><svg xml:space="preserve" width="1500" height="129" data-version="2" data-id="lg_AcqH9mRFsJpXV6p5b4" viewBox="0 0 418 129" x="0" y="0"><rect width="100%" height="100%" fill="transparent"></rect><path fill="#2d4f8f" d="M134.128 61.238v-42.77h-8.1v42.13q0 4.82-1.68 8.1-1.68 3.27-4.59 5-2.92 1.73-6.74 1.73-3.82 0-6.82-1.73-3.01-1.73-4.69-5-1.68-3.28-1.68-8.1v-42.13h-8.1v42.77q0 6.37 1.91 10.6 1.91 4.23 5.05 6.73 3.14 2.5 6.91 3.55 3.78 1.05 7.42 1.05t7.33-1.05q3.68-1.05 6.82-3.55t5.05-6.73q1.91-4.23 1.91-10.6"></path><rect width="42.4" height="64.7" x="-21.2" y="-32.35" fill="none" rx="0" ry="0" transform="translate(113.43 51.32)"></rect><path fill="#2d4f8f" d="M144.328 82.168v-63.7h8v63.7z"></path><rect width="8" height="63.7" x="-4" y="-31.85" fill="none" rx="0" ry="0" transform="translate(148.83 50.82)"></rect><path fill="#2d4f8f" d="M200.838 18.468v7.82l-30.67 47.23v.91h30.67v7.74h-40.23v-7.83l30.85-47.23v-.91h-30.85v-7.73z"></path><rect width="40.23" height="63.7" x="-20.11" y="-31.85" fill="none" rx="0" ry="0" transform="translate(181.22 50.82)"></rect><path fill="#2d4f8f" d="m243.418 69.968-.36-51.5h7.92v63.7h-11.01l-21.93-51.24h-1.19l.18 51.24h-7.82v-63.7h11.01l22.02 51.5z"></path><rect width="41.77" height="63.7" x="-20.89" y="-31.85" fill="none" rx="0" ry="0" transform="translate(230.6 50.82)"></rect><path fill="#2d4f8f" d="M262.348 82.168v-63.7h8.01v63.7z"></path><rect width="8.01" height="63.7" x="-4" y="-31.85" fill="none" rx="0" ry="0" transform="translate(266.85 50.82)"></rect><path fill="#2d4f8f" d="m315.858 69.968-.36-51.5h7.91v63.7h-11.01l-21.93-51.24h-1.18l.18 51.24h-7.83v-63.7h11.02l22.02 51.5z"></path><rect width="41.77" height="63.7" x="-20.89" y="-31.85" fill="none" rx="0" ry="0" transform="translate(303.02 50.82)"></rect><path fill="#2d4f8f" d="M358.078 18.468v47.5q0 6.82-2.09 10.55-2.09 3.73-5.46 5.24-3.37 1.5-7.37 1.5-4.55 0-7.46-1.37-2.91-1.36-4.55-2.82v-7.92h1.18q2 2.1 4.46 3.42 2.46 1.32 5.19 1.32 3.36 0 5.73-2.19 2.37-2.18 2.37-7.73v-47.5zm-26.84 7.18v-7.18h23.02v7.18z"></path><rect width="26.93" height="64.79" x="-13.46" y="-32.4" fill="none" rx="0" ry="0" transform="translate(345.11 51.36)"></rect><path fill="#2d4f8f" d="M372.188 82.168h-8.19v-1.64l15.47-62.06 18.02.09 15.38 61.97v1.64h-8.19l-4.92-20.48h-22.66zm13.1-56.24-6.73 28.66h19.84l-6.83-28.66z"></path><rect width="48.87" height="63.7" x="-24.43" y="-31.85" fill="none" rx="0" ry="0" transform="translate(388.93 50.82)"></rect><path fill="#2d4f8f" d="M24.208 113.478h6.8v7.38q-1.06.62-2.33.94-1.27.32-2.37.32-2.16 0-3.66-.89t-2.26-2.49q-.75-1.6-.75-3.73 0-2.01.73-3.61.72-1.61 2.23-2.54 1.5-.94 3.71-.94 1.19 0 2.01.23.82.22 1.85.67v1.66q-.92-.51-1.81-.77t-2.05-.26q-1.53 0-2.62.7-1.1.71-1.68 1.96-.57 1.25-.57 2.85 0 1.67.56 2.94.57 1.27 1.67 1.98t2.64.71q.78 0 1.48-.18t1.49-.5v-4.86h-5.07z"></path><rect width="11.37" height="14.2" x="-5.68" y="-7.1" fill="none" rx="0" ry="0" transform="translate(25.82 115.52)"></rect><path fill="#2d4f8f" d="M40.818 111.648h.42v1.58h-.42q-1.55 0-3 1.24v7.35h-1.7v-9.96h1.7v1.12q1.47-1.33 3-1.33"></path><rect width="5.12" height="10.17" x="-2.56" y="-5.08" fill="none" rx="0" ry="0" transform="translate(39.18 117.23)"></rect><path fill="#2d4f8f" d="M46.528 116.978q.03 1.65.83 2.64.79.99 2.52.99 1.31 0 2.88-.74l.52 1.41q-1.64.84-3.55.84-1.58 0-2.7-.66-1.11-.67-1.69-1.86-.58-1.18-.58-2.77 0-1.67.61-2.85.6-1.18 1.63-1.79 1.02-.61 2.3-.61 1.96 0 3.08 1.22 1.11 1.22 1.11 3.51v.67zm2.77-3.89q-2.23 0-2.66 2.46h5.07q-.09-1.26-.68-1.86-.6-.6-1.73-.6"></path><rect width="8.73" height="10.54" x="-4.37" y="-5.27" fill="none" rx="0" ry="0" transform="translate(49.62 117.35)"></rect><path fill="#2d4f8f" d="M60.948 111.858q1.58 0 2.41.54.83.53 1.1 1.42.27.89.27 2.24v5.76h-1.7v-.99q-.68.65-1.36.93-.69.29-1.48.29-.94 0-1.69-.4-.76-.41-1.2-1.17-.44-.77-.44-1.81 0-1.62 1.01-2.51 1.01-.89 2.72-.89 1.35 0 2.43.59-.02-.88-.18-1.4-.17-.53-.67-.8-.5-.28-1.49-.28h-1.34v-1.52zm-.53 8.73q.62 0 1.29-.28.68-.29 1.32-.87v-2.27q-1-.5-2.19-.5-.96 0-1.6.46-.65.46-.65 1.54 0 1.01.55 1.47.55.45 1.28.45"></path><rect width="7.87" height="10.19" x="-3.94" y="-5.09" fill="none" rx="0" ry="0" transform="translate(61.3 117.45)"></rect><path fill="#2d4f8f" d="M73.828 113.558h-2.3v5.68q0 .72.23.99.22.26.83.26.54 0 1.15-.15v1.53q-.81.18-1.44.18-1.36 0-1.91-.56-.55-.55-.55-1.87v-6.06h-1.3v-1.57h1.3v-3.42h1.69v3.42h2.3z"></path><rect width="5.29" height="13.48" x="-2.65" y="-6.74" fill="none" rx="0" ry="0" transform="translate(71.68 115.8)"></rect><path fill="#2d4f8f" d="M90.198 122.118q-2.2 0-3.69-.88-1.5-.88-2.24-2.48-.75-1.6-.75-3.75 0-2.01.74-3.61.73-1.61 2.24-2.54 1.5-.94 3.7-.94.95 0 1.7.16.74.15 1.61.51v1.6q-1.53-.74-3.28-.74-1.51 0-2.63.71-1.11.71-1.71 1.98-.59 1.27-.57 2.87 0 1.66.57 2.92.58 1.26 1.68 1.96t2.63.7q.95 0 1.88-.27.92-.27 1.95-.77l.56 1.48q-1.05.54-2.2.82-1.15.27-2.19.27"></path><rect width="11.07" height="14.2" x="-5.54" y="-7.1" fill="none" rx="0" ry="0" transform="translate(89.55 115.52)"></rect><path fill="#2d4f8f" d="M103.118 122.118q-1.58 0-2.69-.69-1.11-.69-1.67-1.89-.55-1.2-.55-2.69t.55-2.69q.56-1.2 1.67-1.89 1.11-.69 2.69-.69 1.58 0 2.69.69 1.11.69 1.66 1.89.55 1.2.55 2.69t-.55 2.69q-.55 1.2-1.66 1.89-1.11.69-2.69.69m0-1.53q1.49 0 2.31-1.04.82-1.04.82-2.7 0-1.66-.82-2.69-.82-1.04-2.31-1.04-1.49 0-2.32 1.04-.83 1.03-.83 2.69t.83 2.7q.83 1.04 2.32 1.04"></path><rect width="9.81" height="10.54" x="-4.91" y="-5.27" fill="none" rx="0" ry="0" transform="translate(103.61 117.35)"></rect><path fill="#2d4f8f" d="M115.678 111.858q1.59 0 2.42.54.82.53 1.09 1.42.27.89.27 2.24v5.76h-1.69v-.99q-.68.65-1.37.93-.68.29-1.47.29-.94 0-1.69-.4-.76-.41-1.2-1.17-.44-.77-.44-1.81 0-1.62 1.01-2.51 1-.89 2.71-.89 1.35 0 2.43.59-.01-.88-.18-1.4-.16-.53-.66-.8-.51-.28-1.5-.28h-1.33v-1.52zm-.52 8.73q.61 0 1.29-.28.67-.29 1.32-.87v-2.27q-1.01-.5-2.19-.5-.96 0-1.61.46-.64.46-.64 1.54 0 1.01.55 1.47.54.45 1.28.45"></path><rect width="7.86" height="10.19" x="-3.93" y="-5.09" fill="none" rx="0" ry="0" transform="translate(116.03 117.45)"></rect><path fill="#2d4f8f" d="M128.448 122.118q-2.33-.01-3.58-1.44-1.25-1.42-1.25-3.85t1.25-3.83q1.25-1.41 3.58-1.42.81 0 1.39.11.59.12 1.25.39v1.64q-.65-.31-1.23-.43-.59-.13-1.29-.13-1.67.02-2.43 1-.75.98-.75 2.65 0 1.71.75 2.72.76 1.01 2.4 1.03 1.27 0 2.79-.78l.54 1.48q-1.64.86-3.42.86"></path><rect width="8.25" height="10.54" x="-4.13" y="-5.27" fill="none" rx="0" ry="0" transform="translate(128.24 117.35)"></rect><path fill="#2d4f8f" d="M140.778 111.648q1.83 0 2.72.97.89.97.89 3.2v6h-1.69v-6q0-1.4-.47-1.99-.48-.6-1.69-.6-1.4 0-2.81 1.23v7.36h-1.69v-15.23h1.69v6.34q1.46-1.28 3.05-1.28"></path><rect width="8.35" height="15.23" x="-4.17" y="-7.62" fill="none" rx="0" ry="0" transform="translate(140.71 114.7)"></rect><path fill="#2d4f8f" d="M149.518 109.988v-2.72h1.7v2.72zm0 11.83v-9.96h1.7v9.96z"></path><rect width="1.7" height="14.55" x="-.85" y="-7.28" fill="none" rx="0" ry="0" transform="translate(150.87 115.04)"></rect><path fill="#2d4f8f" d="M161.168 111.648q1.84 0 2.73.97.89.97.89 3.2v6h-1.69v-6q0-1.4-.48-1.99-.48-.6-1.68-.6-1.41 0-2.81 1.23v7.36h-1.69v-9.96h1.69v1.07q1.47-1.28 3.04-1.28"></path><rect width="8.35" height="10.17" x="-4.17" y="-5.08" fill="none" rx="0" ry="0" transform="translate(161.11 117.23)"></rect><path fill="#2d4f8f" d="M176.578 111.858h1.69v10.16q0 2.03-.94 3.17-.95 1.15-3.31 1.15-1.15 0-1.99-.15-.83-.14-1.72-.5v-1.68q.83.38 1.66.57.83.19 1.53.19 1.3 0 1.96-.33.67-.34.89-.96.23-.62.23-1.64v-1.28q-1.42 1.2-2.88 1.2-2.02 0-3.21-1.31-1.2-1.31-1.2-3.78 0-2.48 1.2-3.79 1.21-1.3 3.21-1.3 1.44 0 2.88 1.22zm-2.65 8.34q1.32 0 2.65-1.12v-4.8q-1.3-1.12-2.65-1.12-1.4 0-2.15.93-.75.92-.75 2.58 0 1.71.74 2.62.74.91 2.16.91"></path><rect width="8.98" height="14.76" x="-4.49" y="-7.38" fill="none" rx="0" ry="0" transform="translate(174.28 119.46)"></rect><path fill="#2d4f8f" d="M193.998 108.168q3.37 0 5.09 1.74 1.72 1.74 1.72 5.1 0 3.39-1.71 5.1-1.71 1.71-5.1 1.71h-4.53v-13.65zm5.01 6.79q0-2.7-1.26-3.98-1.26-1.28-3.75-1.28h-2.79v10.59h2.79q2.5 0 3.76-1.28 1.25-1.28 1.25-4.05"></path><rect width="11.34" height="13.65" x="-5.67" y="-6.83" fill="none" rx="0" ry="0" transform="translate(195.64 115.5)"></rect><path fill="#2d4f8f" d="M206.618 116.978q.04 1.65.83 2.64.79.99 2.52.99 1.31 0 2.88-.74l.52 1.41q-1.64.84-3.55.84-1.58 0-2.7-.66-1.11-.67-1.69-1.86-.57-1.18-.57-2.77 0-1.67.6-2.85.6-1.18 1.63-1.79 1.02-.61 2.3-.61 1.96 0 3.08 1.22t1.12 3.51v.67zm2.77-3.89q-2.23 0-2.66 2.46h5.07q-.09-1.26-.68-1.86-.59-.6-1.73-.6"></path><rect width="8.73" height="10.54" x="-4.37" y="-5.27" fill="none" rx="0" ry="0" transform="translate(209.72 117.35)"></rect><path fill="#2d4f8f" d="M220.998 122.118q-1.1 0-1.94-.18-.85-.18-1.77-.61v-1.67q1.71.95 3.71.95 1.01 0 1.45-.4.44-.41.44-1.07 0-.65-.35-.96-.35-.3-1.14-.52l-1.17-.29q-1.26-.3-1.98-.97-.72-.67-.72-1.96 0-1.35.88-2.11.88-.75 2.59-.75.88 0 1.64.17.76.17 1.51.47v1.59q-.74-.34-1.46-.53t-1.63-.19q-.96 0-1.38.37-.42.37-.42.92 0 .62.37.93.36.32 1.07.5l1.18.27q.9.21 1.49.54.58.32.92.91.33.58.33 1.55 0 1.46-.98 2.25t-2.64.79"></path><rect width="7.33" height="10.54" x="-3.67" y="-5.27" fill="none" rx="0" ry="0" transform="translate(221.45 117.35)"></rect><path fill="#2d4f8f" d="M230.358 116.978q.04 1.65.83 2.64.79.99 2.52.99 1.31 0 2.88-.74l.52 1.41q-1.64.84-3.54.84-1.59 0-2.7-.66-1.12-.67-1.7-1.86-.57-1.18-.57-2.77 0-1.67.6-2.85.6-1.18 1.63-1.79 1.03-.61 2.3-.61 1.97 0 3.08 1.22 1.12 1.22 1.12 3.51v.67zm2.77-3.89q-2.23 0-2.66 2.46h5.08q-.09-1.26-.69-1.86-.59-.6-1.73-.6"></path><rect width="8.73" height="10.54" x="-4.37" y="-5.27" fill="none" rx="0" ry="0" transform="translate(233.46 117.35)"></rect><path fill="#2d4f8f" d="M246.418 111.648h.41v1.58h-.41q-1.55 0-3.01 1.24v7.35h-1.69v-9.96h1.69v1.12q1.48-1.33 3.01-1.33"></path><rect width="5.11" height="10.17" x="-2.56" y="-5.08" fill="none" rx="0" ry="0" transform="translate(244.77 117.23)"></rect><path fill="#2d4f8f" d="M257.448 111.858h1.77l-3.77 10.12h-1.94l-3.8-10.12h1.77l3 8.25z"></path><rect width="9.51" height="10.12" x="-4.75" y="-5.06" fill="none" rx="0" ry="0" transform="translate(254.96 117.42)"></rect><path fill="#2d4f8f" d="M264.328 116.978q.03 1.65.83 2.64.79.99 2.52.99 1.31 0 2.88-.74l.52 1.41q-1.64.84-3.55.84-1.58 0-2.7-.66-1.11-.67-1.69-1.86-.58-1.18-.58-2.77 0-1.67.61-2.85.6-1.18 1.63-1.79 1.02-.61 2.3-.61 1.96 0 3.08 1.22 1.11 1.22 1.11 3.51v.67zm2.77-3.89q-2.23 0-2.66 2.46h5.07q-.09-1.26-.68-1.86-.6-.6-1.73-.6"></path><rect width="8.73" height="10.54" x="-4.37" y="-5.27" fill="none" rx="0" ry="0" transform="translate(267.42 117.35)"></rect><path fill="#2d4f8f" d="M278.708 122.118q-1.1 0-1.94-.18-.85-.18-1.77-.61v-1.67q1.71.95 3.71.95 1.01 0 1.45-.4.44-.41.44-1.07 0-.65-.35-.96-.35-.3-1.14-.52l-1.17-.29q-1.26-.3-1.98-.97-.72-.67-.72-1.96 0-1.35.88-2.11.88-.75 2.59-.75.88 0 1.64.17.75.17 1.51.47v1.59q-.74-.34-1.46-.53t-1.64-.19q-.95 0-1.37.37-.43.37-.43.92 0 .62.37.93.37.32 1.07.5l1.19.27q.9.21 1.49.54.58.32.92.91.33.58.33 1.55 0 1.46-.98 2.25t-2.64.79"></path><rect width="7.33" height="10.54" x="-3.67" y="-5.27" fill="none" rx="0" ry="0" transform="translate(279.16 117.35)"></rect><path fill="#2d4f8f" d="M296.818 113.478h6.8v7.38q-1.06.62-2.33.94-1.27.32-2.37.32-2.16 0-3.66-.89t-2.26-2.49q-.75-1.6-.75-3.73 0-2.01.73-3.61.72-1.61 2.23-2.54 1.5-.94 3.71-.94 1.19 0 2.01.23.82.22 1.85.67v1.66q-.92-.51-1.81-.77t-2.05-.26q-1.53 0-2.62.7-1.1.71-1.68 1.96-.57 1.25-.57 2.85 0 1.67.56 2.94.57 1.27 1.67 1.98t2.64.71q.78 0 1.48-.18t1.49-.5v-4.86h-5.07z"></path><rect width="11.37" height="14.2" x="-5.68" y="-7.1" fill="none" rx="0" ry="0" transform="translate(298.43 115.52)"></rect><path fill="#2d4f8f" d="M313.428 111.648h.42v1.58h-.42q-1.55 0-3 1.24v7.35h-1.7v-9.96h1.7v1.12q1.47-1.33 3-1.33"></path><rect width="5.12" height="10.17" x="-2.56" y="-5.08" fill="none" rx="0" ry="0" transform="translate(311.79 117.23)"></rect><path fill="#2d4f8f" d="M319.138 116.978q.03 1.65.83 2.64.79.99 2.52.99 1.31 0 2.88-.74l.52 1.41q-1.64.84-3.55.84-1.58 0-2.7-.66-1.11-.67-1.69-1.86-.58-1.18-.58-2.77 0-1.67.61-2.85.6-1.18 1.63-1.79 1.02-.61 2.3-.61 1.96 0 3.08 1.22 1.11 1.22 1.11 3.51v.67zm2.77-3.89q-2.23 0-2.66 2.46h5.07q-.09-1.26-.68-1.86-.6-.6-1.73-.6"></path><rect width="8.73" height="10.54" x="-4.37" y="-5.27" fill="none" rx="0" ry="0" transform="translate(322.23 117.35)"></rect><path fill="#2d4f8f" d="M333.558 111.858q1.58 0 2.41.54.83.53 1.1 1.42.27.89.27 2.24v5.76h-1.7v-.99q-.68.65-1.36.93-.69.29-1.48.29-.94 0-1.69-.4-.76-.41-1.2-1.17-.44-.77-.44-1.81 0-1.62 1.01-2.51 1.01-.89 2.72-.89 1.35 0 2.43.59-.02-.88-.18-1.4-.17-.53-.67-.8-.5-.28-1.49-.28h-1.34v-1.52zm-.53 8.73q.62 0 1.29-.28.68-.29 1.32-.87v-2.27q-1-.5-2.19-.5-.96 0-1.6.46-.65.46-.65 1.54 0 1.01.55 1.47.55.45 1.28.45"></path><rect width="7.87" height="10.19" x="-3.94" y="-5.09" fill="none" rx="0" ry="0" transform="translate(333.9 117.45)"></rect><path fill="#2d4f8f" d="M346.438 113.558h-2.3v5.68q0 .72.23.99.22.26.83.26.54 0 1.15-.15v1.53q-.81.18-1.44.18-1.36 0-1.91-.56-.55-.55-.55-1.87v-6.06h-1.3v-1.57h1.3v-3.42h1.69v3.42h2.3z"></path><rect width="5.29" height="13.48" x="-2.65" y="-6.74" fill="none" rx="0" ry="0" transform="translate(344.3 115.8)"></rect><path fill="#2d4f8f" d="M365.808 108.168v1.57h-4.1v12.08h-1.77v-12.08h-4.1v-1.57z"></path><rect width="9.97" height="13.65" x="-4.99" y="-6.83" fill="none" rx="0" ry="0" transform="translate(361.32 115.5)"></rect><path fill="#2d4f8f" d="M371.278 116.978q.04 1.65.83 2.64.79.99 2.52.99 1.32 0 2.88-.74l.52 1.41q-1.63.84-3.54.84-1.59 0-2.7-.66-1.12-.67-1.69-1.86-.58-1.18-.58-2.77 0-1.67.6-2.85.61-1.18 1.63-1.79 1.03-.61 2.31-.61 1.96 0 3.07 1.22 1.12 1.22 1.12 3.51v.67zm2.78-3.89q-2.24 0-2.67 2.46h5.08q-.09-1.26-.69-1.86-.59-.6-1.72-.6"></path><rect width="8.73" height="10.54" x="-4.37" y="-5.27" fill="none" rx="0" ry="0" transform="translate(374.38 117.35)"></rect><path fill="#2d4f8f" d="M386.848 122.118q-2.32-.01-3.57-1.44-1.25-1.42-1.25-3.85t1.25-3.83q1.25-1.41 3.57-1.42.81 0 1.4.11.58.12 1.25.39v1.64q-.65-.31-1.23-.43-.59-.13-1.29-.13-1.67.02-2.43 1-.76.98-.76 2.65 0 1.71.76 2.72.76 1.01 2.39 1.03 1.28 0 2.79-.78l.54 1.48q-1.63.86-3.42.86"></path><rect width="8.24" height="10.54" x="-4.12" y="-5.27" fill="none" rx="0" ry="0" transform="translate(386.65 117.35)"></rect><path fill="#2d4f8f" d="M399.178 111.648q1.84 0 2.73.97.89.97.89 3.2v6h-1.69v-6q0-1.4-.48-1.99-.47-.6-1.68-.6-1.4 0-2.81 1.23v7.36h-1.69v-15.23h1.69v6.34q1.46-1.28 3.04-1.28"></path><rect width="8.35" height="15.23" x="-4.17" y="-7.62" fill="none" rx="0" ry="0" transform="translate(399.12 114.7)"></rect><path fill="#2d4f8f" d="M40.926 1.661c-35.621 0-36.795 21.468-36.795 41.968h73.591c0-20.5-1.174-41.968-36.796-41.968M23.697 54.262c3.533 0 6.526-1.276 7.474-3.023l-15.227-2.623c-.032 1.127-.042 1.267-.042 1.406-.002 2.346 3.487 4.24 7.795 4.24m53.218 3.336-3.16 3.115-21.78-3.115-11.051-2.252-11.043 2.252-23.693 3.278c.638 5.718.73 13.389 4.177 18.567 3.428 5.145 8.14 7.688 13.482 10.931 5.322 3.245 11.245 7.191 17.076 7.191 5.84 0 11.763-3.946 17.085-7.19 5.341-3.245 10.054-5.787 13.482-10.932 1.922-2.893 2.587-6.556 2.911-10.22.74 5.554 2.09 13.045 4.454 19.687 2.541-1.19 1.313-6.592-.213-12.832 1.996 4.75 4.649 9.716 8.003 13.465 3.734-1.917-9.73-22.564-9.73-31.945m-18.76-3.336c4.308 0 7.797-1.895 7.797-4.24 0-.14-.01-.279-.043-1.406l-15.227 2.623c.948 1.747 3.942 3.023 7.473 3.023"></path></svg></svg>